inDegrees=no
num_controls=7
num_derivatives=13
num_iterations=102
num_multipliers=7
num_parameters=0
num_slacks=7
num_states=26
objective=5.425472
objective_accelerations=0.518018
objective_balance=0.017832
objective_effort=0.415222
objective_height=4.450424
objective_ligament=0.023975
solver_duration=872.322574
status=Solve_Succeeded
success=true
DataType=double
version=3
OpenSimVersion=4.4-2022-07-23-0e9fedc
endheader
time	/jointset/ground_pelvis/pelvis_tilt/value	/jointset/ground_pelvis/pelvis_tx/value	/jointset/ground_pelvis/pelvis_ty/value	/jointset/hip_r/hip_flexion_r/value	/jointset/hip_r/hip_adduction_r/value	/jointset/hip_r/hip_rotation_r/value	/jointset/back/lumbar_extension/value	/jointset/patellofemoral_r/patellar_flexion_r/value	/jointset/knee_r/knee_flexion_r/value	/jointset/knee_r/knee_adduction_r/value	/jointset/knee_r/knee_rotation_r/value	/jointset/ankle_r/ankle_angle_r/value	/jointset/subtalar_r/subtalar_angle_r/value	/jointset/ground_pelvis/pelvis_tilt/speed	/jointset/ground_pelvis/pelvis_tx/speed	/jointset/ground_pelvis/pelvis_ty/speed	/jointset/hip_r/hip_flexion_r/speed	/jointset/hip_r/hip_adduction_r/speed	/jointset/hip_r/hip_rotation_r/speed	/jointset/back/lumbar_extension/speed	/jointset/patellofemoral_r/patellar_flexion_r/speed	/jointset/knee_r/knee_flexion_r/speed	/jointset/knee_r/knee_adduction_r/speed	/jointset/knee_r/knee_rotation_r/speed	/jointset/ankle_r/ankle_angle_r/speed	/jointset/subtalar_r/subtalar_angle_r/speed	/forceset/tau_hip_flexion_r	/forceset/tau_hip_adduction_r	/forceset/tau_hip_rotation_r	/forceset/tau_knee_flexion_r	/forceset/tau_ankle_angle_r	/forceset/tau_subtalar_angle_r	/forceset/tau_lumbar_extension	lambda_cid13_p0	lambda_cid14_p0	lambda_cid14_p1	lambda_cid14_p2	lambda_cid14_p3	lambda_cid14_p4	lambda_cid14_p5	/jointset/ground_pelvis/pelvis_tilt/accel	/jointset/ground_pelvis/pelvis_tx/accel	/jointset/ground_pelvis/pelvis_ty/accel	/jointset/hip_r/hip_flexion_r/accel	/jointset/hip_r/hip_adduction_r/accel	/jointset/hip_r/hip_rotation_r/accel	/jointset/back/lumbar_extension/accel	/jointset/patellofemoral_r/patellar_flexion_r/accel	/jointset/knee_r/knee_flexion_r/accel	/jointset/knee_r/knee_adduction_r/accel	/jointset/knee_r/knee_rotation_r/accel	/jointset/ankle_r/ankle_angle_r/accel	/jointset/subtalar_r/subtalar_angle_r/accel	gamma_cid13_p0	gamma_cid14_p0	gamma_cid14_p1	gamma_cid14_p2	gamma_cid14_p3	gamma_cid14_p4	gamma_cid14_p5
0.5	-0.1217558896983304	0.03844645088016489	0.8219906339030564	0.8239319502403306	-0.2202861512442958	-0.1384049702581422	-0.6388528860327656	0.9025689678505067	0.9025689678505016	-0.04927092909547081	0.1745210168782846	0.2920626477292362	0.1418909419685408	-0.3157686963253414	-0.1906354656660613	-0.4396508648949009	1.690272047938452	-0.008660441209799273	0.1457211183907584	-0.7411991268754573	1.792773548466439	1.792773548466448	-0.4585346509687913	2.642859245948512e-05	0.5278817561785084	0.1981031813813984	-0.1850977922133244	0.009729240912681677	0.01582522190373718	-0.2753250045994614	-0.01300984564512426	0.001362093724355397	0.231817487917032	-11.25732530592735	-46.62739946741324	-5.780523842896491	-0.7034320927223441	-2.509223273197815	-643.0785466382364	62.34664344564066	0.2313960126258564	0.5115514653238087	-0.3720020394403347	-1.166522642373648	-0.2451749764852426	-0.6453053659011289	1.67986800258678	-1.292435209107503	-1.292435209107499	0.4119845537527431	0.0006750999601228009	-0.5132951639461655	-0.3699072490336456	-8.095173438267799e-08	-1.177753867368128e-07	1.809495642493714e-08	-1.389117359860906e-06	6.885941562699599e-08	-2.078770092907971e-07	1.969471319228918e-07
0.51	-0.1249014393609598	0.03656588821262412	0.817576535819201	0.8407737948567555	-0.2203855318688692	-0.1369784023813615	-0.6461800337188887	0.9204296214699303	0.9204296214699399	-0.05383297712254952	0.1745212522031407	0.2973148023326232	0.1438520984573072	-0.3132936669748552	-0.1854572895326019	-0.4430677001191692	1.677863654891167	-0.01120175361005503	0.1395896269556524	-0.7241344937901822	1.779103491070813	1.77910349107081	-0.4538525932842115	2.604567768804433e-05	0.5224744503274423	0.1941025626051075	-0.1910074948063837	0.01061090513901455	0.01600831942420477	-0.2798034345881932	-0.01404193003766812	0.001958132309147874	0.2374312565841107	-10.32709257013302	-47.21866540256432	-5.775673858220853	-0.5323170143916522	-2.517874346922674	-647.5410265392927	62.71785045091955	0.2626793816883873	0.5239332416357394	-0.3114076146467745	-1.312997830096455	-0.2567395936691949	-0.5976771687752619	1.734148445247634	-1.442327721227019	-1.442327721228836	0.4996470206089569	0.0001370740029786629	-0.565655198834624	-0.4191527456005988	-9.26369325056601e-08	-1.401859666338129e-07	-4.944861457132803e-08	-1.625171372860857e-06	8.796832628143002e-08	-2.203320634992769e-07	1.458741775658038e-07
0.52	-0.1280208141329943	0.03473770381727384	0.8131312927129579	0.8574845555038763	-0.2205099516618188	-0.1356132706462317	-0.6533336575774075	0.9381459671721293	0.9381459671721146	-0.0583475384438091	0.1745215901109728	0.3025106424968712	0.1457724460475762	-0.3105337182072436	-0.1801598112279618	-0.445879869372471	1.664055254076261	-0.01366827488523678	0.1334338900621543	-0.7064943613549201	1.763911965017716	1.7639119650177	-0.4490373098077003	4.694521086722768e-05	0.5166188683504652	0.1899414016818665	-0.1969171973994209	0.01149256936531412	0.01619141694441148	-0.2842818645769437	-0.01507401443021974	0.002554170893895008	0.2430450252512132	-9.401706397041718	-47.81142695027751	-5.769341890399988	-0.363430706263282	-2.549378973290263	-652.0300606976394	63.14556101752403	0.2883798960509349	0.5354118995598893	-0.2510688452470117	-1.446524195897849	-0.2302167514702173	-0.6501544575790893	1.794967872584118	-1.596728940601684	-1.596728940601662	0.4386297121389197	0.004931589549567125	-0.6029503891283902	-0.4020156784233255	-1.188143376252626e-07	-1.746857485034013e-07	-3.552102169376684e-08	-1.992107856875009e-06	1.060071373300268e-07	-2.501544205252749e-07	1.530638672863604e-07
0.53	-0.1311110214643944	0.03296299563139136	0.808660981024302	0.8740502091543054	-0.2206590949830472	-0.134308334585752	-0.6603082774935947	0.9557031719446989	0.9557031719446673	-0.06281132919890563	0.1745221520214922	0.3076456111021481	0.1476496067859474	-0.3074533633596673	-0.1747714346949489	-0.448080485430623	1.648852678757063	-0.01615218006208237	0.1276177235449647	-0.6883498788463007	1.747304896780263	1.747304896780251	-0.4436364557698097	4.942980393768578e-05	0.5103032967569944	0.1854531934510581	-0.202911150780782	0.01254185142261954	0.01640902892703404	-0.288408516749483	-0.01668778987736376	0.003007318277289637	0.2486411026800148	-8.496433272203459	-48.60836319133803	-5.866485837370123	-0.1715719184526331	-2.331034648285399	-656.5018169945268	63.34713921977522	0.3260005168862481	0.5421323144568436	-0.1893137105856609	-1.590570569729397	-0.2565719946351891	-0.5379663786085769	1.836149895346485	-1.726283159637569	-1.72628315963716	0.603454680315906	-0.004917758477931056	-0.6565989033516733	-0.4781203074365374	-1.136429471401595e-07	-1.338821469179215e-07	2.71546919884256e-07	-1.587563763029169e-06	4.887355728441118e-08	-2.159606517043667e-07	3.287971356613552e-07
0.54	-0.1341687977997597	0.03124248756769623	0.8041717120301675	0.8904571477775872	-0.2208328962748043	-0.1330596839164367	-0.6670990602936252	0.9730875885560022	0.9730875885560197	-0.06721858312748769	0.1745221738473702	0.3127152763197149	0.1494807060596047	-0.30404751900108	-0.1693197867904926	-0.4496713304681997	1.632312248645931	-0.01859986899263621	0.1221768118349763	-0.6697269381238585	1.729354332769989	1.72935433276998	-0.4377299445038388	-6.107170953783406e-05	0.5035581908077128	0.1807291087391664	-0.2089051041621399	0.01359113347982649	0.01662664091002143	-0.2925351689219744	-0.0183015653245376	0.003460465660495285	0.2542371801088276	-7.640373855417306	-49.40344977308577	-5.955971139767327	0.01068737667426538	-2.147940607620791	-660.9582967991049	63.63236979077653	0.3534777982531418	0.5480661738484982	-0.1291146411319438	-1.714095154284729	-0.2229735022115212	-0.5751034961382601	1.890659515348595	-1.865428095166118	-1.865428095166116	0.5397611577548224	-0.01766563176049722	-0.688857260290601	-0.4491909746395532	-7.378778279453046e-08	-9.764163637471612e-09	9.029403536415168e-07	-3.294666894233286e-07	-9.142947673778093e-08	-1.109405308826252e-07	6.910041506327521e-07
0.55	-0.1371911064759257	0.02957676983391424	0.7996696089846592	0.9066922803994042	-0.2210302639062911	-0.13186761877309	-0.6737013162442309	0.9902853338368787	0.9902853338369237	-0.07156865523863042	0.1745220243584478	0.3177155566068319	0.1512646666548192	-0.3003705449808327	-0.1638158472376473	-0.4506431183319415	1.614497255507566	-0.02086935047938863	0.1163090662934185	-0.6506657076233898	1.709970228365152	1.70997022836515	-0.4321842535283818	1.488785667274542e-05	0.4964279124557682	0.1760191681973939	-0.2144775434761975	0.01440019629731917	0.01693624203474828	-0.297273976343522	-0.01923807402959488	0.003763991034682548	0.2594919234231231	-6.835040499448822	-49.99948115556017	-6.093042822633403	0.2204746481977487	-2.063179596799811	-665.4805998971269	63.92459364119993	0.3813649282704351	0.5527111633992837	-0.06529754510097184	-1.847745983603628	-0.2281707782540507	-0.5817365428538339	1.922636473407155	-2.008565459593143	-2.008565459591977	0.5771702564905041	0.01789432410474816	-0.7356464167234429	-0.4882337835871997	-5.052617197894021e-08	6.028049317630224e-08	1.235804816224377e-06	3.634581518922164e-07	-1.6877348044972e-07	-4.895540739508816e-08	8.872479273690641e-07
